{"title":"Romeo Santos - Llevame Contigo (Live) (h264/mp4)","uid":7685964,"size":137086962,"categoryP":"video","categoryS":"music_videos","magnet":"?xt=urn:btih:f42e0fc6bc4c72f4d52ecedc8aeb4507794baa23&amp;dn=Romeo+Santos+-+Llevame+Contigo+%28Live%29+%28h264%2Fmp4%29&amp;tr=udp%3A%2F%2Ftracker.openbittorrent.com%3A80&amp;tr=udp%3A%2F%2Fopen.demonii.com%3A1337&amp;tr=udp%3A%2F%2Ftracker.coppersurfer.tk%3A6969&amp;tr=udp%3A%2F%2Fexodus.desync.com%3A6969","seeders":12,"leechers":0,"uploader":"MusicVideos-HQ","files":1,"time":1348946801,"description":"General\n\nFormat                         : MPEG-4\nFormat profile                 : Base Media\nCodec ID                       : isom\nFile size                      : 131 MiB\nDuration                       : 3mn 49s\nOverall bit rate mode          : Variable\nOverall bit rate               : 4 781 Kbps\nEncoded date                   : UTC 2012-09-28 04:00:39\nTagged date                    : UTC 2012-09-28 04:00:39\n\nVideo\nID                             : 1\nFormat                         : AVC\nFormat/Info                    : Advanced Video Codec\nFormat profile                 : &lt;a class=&quot;__cf_email__&quot; href=&quot;/cdn-cgi/l/email-protection&quot; data-cfemail=&quot;eba3828c83aba7d8c5db&quot;&gt;[email&amp;#160;protected]&lt;/a&gt;&lt;script cf-hash='f9e31' type=&quot;text/javascript&quot;&gt;\n/* &lt;![CDATA[ */!function(){try{var t=&quot;currentScript&quot;in document?document.currentScript:function(){for(var t=document.getElementsByTagName(&quot;script&quot;),e=t.length;e--;)if(t[e].getAttribute(&quot;cf-hash&quot;))return t[e]}();if(t&amp;&amp;t.previousSibling){var e,r,n,i,c=t.previousSibling,a=c.getAttribute(&quot;data-cfemail&quot;);if(a){for(e=&quot;&quot;,r=parseInt(a.substr(0,2),16),n=2;a.length-n;n+=2)i=parseInt(a.substr(n,2),16)^r,e+=String.fromCharCode(i);e=document.createTextNode(e),c.parentNode.replaceChild(e,c)}}}catch(u){}}();/* ]]&gt; */&lt;/script&gt;\nFormat settings, CABAC         : Yes\nFormat settings, ReFrames      : 2 frames\nCodec ID                       : avc1\nCodec ID/Info                  : Advanced Video Coding\nDuration                       : 3mn 49s\nBit rate                       : 4 708 Kbps\nMaximum bit rate               : 8 132 Kbps\nWidth                          : 720 pixels\nHeight                         : 480 pixels\nDisplay aspect ratio           : 16:9\nOriginal display aspect ratio  : 16:9\nFrame rate mode                : Constant\nFrame rate                     : 23.976 fps\nStandard                       : NTSC\nColor space                    : YUV\nChroma subsampling             : 4:2:0\nBit depth                      : 8 bits\nScan type                      : Progressive\nBits/(Pixel*Frame)             : 0.568\nStream size                    : 129 MiB (98%)\n\n\nAudio\nID                             : 2\nFormat                         : AAC\nFormat/Info                    : Advanced Audio Codec\nFormat profile                 : LC\nCodec ID                       : 40\nDuration                       : 3mn 49s\nBit rate mode                  : Variable\nBit rate                       : 68.5 Kbps\nMaximum bit rate               : 80.9 Kbps\nChannel(s)                     : 2 channels\nChannel positions              : Front: L R\nSampling rate                  : 44.1 KHz\nCompression mode               : Lossy\nStream size                    : 1.87 MiB (1%)","torrent":{"xt":"urn:btih:f42e0fc6bc4c72f4d52ecedc8aeb4507794baa23","amp;dn":"Romeo+Santos+-+Llevame+Contigo+%28Live%29+%28h264%2Fmp4%29","amp;tr":["udp%3A%2F%2Ftracker.openbittorrent.com%3A80","udp%3A%2F%2Fopen.demonii.com%3A1337","udp%3A%2F%2Ftracker.coppersurfer.tk%3A6969","udp%3A%2F%2Fexodus.desync.com%3A6969"],"infoHash":"f42e0fc6bc4c72f4d52ecedc8aeb4507794baa23","infoHashBuffer":{"type":"Buffer","data":[244,46,15,198,188,76,114,244,213,46,206,220,138,235,69,7,121,75,170,35]},"announce":[],"urlList":[]}}